<?xml version="1.0" encoding="UTF-8" standalone="no"?>
<svg
   xmlns:dc="http://purl.org/dc/elements/1.1/"
   xmlns:cc="http://creativecommons.org/ns#"
   xmlns:rdf="http://www.w3.org/1999/02/22-rdf-syntax-ns#"
   xmlns:svg="http://www.w3.org/2000/svg"
   xmlns="http://www.w3.org/2000/svg"
   xmlns:sodipodi="http://sodipodi.sourceforge.net/DTD/sodipodi-0.dtd"
   xmlns:inkscape="http://www.inkscape.org/namespaces/inkscape"
   version="1.1"
   id="svg2"
   width="200"
   height="200"
   viewBox="0 0 200 200"
   sodipodi:docname="personal_logo.svg"
   inkscape:version="1.0.1 (3bc2e813f5, 2020-09-07, custom)">
  <metadata
     id="metadata8">
    <rdf:RDF>
      <cc:Work
         rdf:about="">
        <dc:format>image/svg+xml</dc:format>
        <dc:type
           rdf:resource="http://purl.org/dc/dcmitype/StillImage" />
        <dc:title />
      </cc:Work>
    </rdf:RDF>
  </metadata>
  <defs
     id="defs6" />
  <sodipodi:namedview
     pagecolor="#ffffff"
     bordercolor="#666666"
     borderopacity="1"
     objecttolerance="10"
     gridtolerance="10"
     guidetolerance="10"
     inkscape:pageopacity="0"
     inkscape:pageshadow="2"
     inkscape:window-width="1366"
     inkscape:window-height="748"
     id="namedview4"
     showgrid="false"
     inkscape:zoom="2.775"
     inkscape:cx="124.13621"
     inkscape:cy="97.156248"
     inkscape:window-x="0"
     inkscape:window-y="20"
     inkscape:window-maximized="1"
     inkscape:current-layer="g10"
     inkscape:document-rotation="0" />
  <g
     inkscape:groupmode="layer"
     inkscape:label="Image"
     id="g10">
    <path
       style="fill:#000000"
       d="m 103.1302,166.41641 c -1.16307,-0.85045 -1.55117,-1.83702 -1.0449,-2.65618 0.63077,-1.02061 1.08716,-0.91789 2.10473,0.47372 0.74138,1.0139 1.96405,1.52183 2.84736,1.18288 1.27503,-0.48928 1.54804,-2.65234 1.54804,-12.26518 0,-9.94264 -0.25918,-11.86789 -1.75,-12.99958 -1.54099,-1.16978 -1.22777,-1.33224 2.62244,-1.36025 3.38444,-0.0246 4.13905,0.25065 3.33954,1.2182 -0.5681,0.6875 -1.1857,6.5162 -1.37245,12.95268 -0.18674,6.43647 -0.78953,12.12339 -1.33953,12.6376 -1.90973,1.78547 -5.11519,2.16159 -6.95523,0.81611 z m -89.544778,-6.5494 c 0,-0.49116 0.675,-1.15203 1.5,-1.46862 2.24797,-0.86262 2.12239,-15.29316 -0.15499,-17.80963 -1.58489,-1.75129 -1.41411,-1.82874 4.03212,-1.82874 10.1252,0 15.62287,3.90173 15.62287,11.08765 0,7.06662 -5.70299,10.89439 -16.25,10.90677 -2.6125,0.003 -4.75,-0.39628 -4.75,-0.88743 z m 15,-3.10699 c 1.46667,-1.46667 2,-3.33333 2,-7 0,-6.18169 -2.34859,-9 -7.5,-9 h -3.5 v 8.33333 c 0,4.58334 0.3,8.63334 0.66667,9 1.39001,1.39001 6.41379,0.58621 8.33333,-1.33333 z m 11.45455,1.54545 c -4.8218,-4.8218 -1.8147,-12.54545 4.88441,-12.54545 3.64109,0 5.66104,1.49863 5.66104,4.2 0,1.49333 -0.85185,1.8 -5,1.8 -5.59314,0 -6.29906,1.17514 -3.08718,5.13922 1.71964,2.12236 2.22461,2.24331 5,1.19764 3.70816,-1.39709 4.15796,-0.14577 0.54013,1.50262 -3.72204,1.69588 -5.2568,1.44758 -7.9984,-1.29403 z m 7.29545,-9.79545 c -0.22916,-0.6875 -1.46666,-1.25 -2.75,-1.25 -1.28333,0 -2.52083,0.5625 -2.75,1.25 -0.27485,0.82456 0.66111,1.25 2.75,1.25 2.08889,0 3.02486,-0.42544 2.75,-1.25 z m 9.77317,6.89831 c -1.38774,-3.13793 -2.52317,-6.12015 -2.52317,-6.62713 0,-0.50699 -0.7875,-1.38048 -1.75,-1.94108 -1.41181,-0.8223 -1.0139,-1.02516 2.05902,-1.04969 2.23805,-0.0179 3.55936,0.37354 3.2037,0.94902 -0.71757,1.16105 1.48178,9.02057 2.52425,9.02057 1.24947,0 3.22316,-5.89728 2.6751,-7.99306 -0.41518,-1.58766 -0.0352,-2.00694 1.81884,-2.00694 h 2.34366 l -3.03302,6.75 c -1.66817,3.7125 -3.42952,7.16707 -3.91411,7.67683 -0.52222,0.54932 -1.90881,-1.39702 -3.40427,-4.77852 z m 62.705098,4.1215 c -2.36177,-1.13823 -3.84836,-4.82098 -3.33821,-8.26981 0.47788,-3.23065 3.18663,-5.5 6.56494,-5.5 3.53386,0 5.54501,1.52332 5.54501,4.2 0,1.46667 -0.83333,1.8 -4.5,1.8 -4.02899,0 -4.5,0.24074 -4.5,2.3 0,2.86562 1.75632,4.7 4.5,4.7 1.155,0 2.64,-0.54 3.3,-1.2 0.93333,-0.93333 1.2,-0.92783 1.2,0.0247 0,0.67361 -1.15429,1.66361 -2.5651,2.2 -3.05565,1.16176 -3.28673,1.15227 -6.20664,-0.25494 z m 5.77174,-11.26981 c -0.68469,-0.825 -1.80969,-1.5 -2.5,-1.5 -0.69031,0 -1.81531,0.675 -2.5,1.5 -1.06888,1.28792 -0.71541,1.5 2.5,1.5 3.21541,0 3.56888,-0.21208 2.5,-1.5 z m 10.89241,9.6212 c -0.62768,-1.80055 -2.14904,-5.26441 -3.38081,-7.69747 l -2.23958,-4.42373 3.61399,0.0153 c 2.44417,0.0104 3.16862,0.29742 2.23807,0.88684 -1.15144,0.72934 -1.08849,1.62418 0.38585,5.48469 0.96898,2.53724 1.88843,4.61316 2.04322,4.61316 0.15479,0 1.06967,-2.06396 2.03307,-4.58658 1.49487,-3.91428 1.54364,-4.71823 0.3327,-5.48469 -0.99535,-0.63001 -0.37413,-0.8981 2.08108,-0.8981 1.925,0 2.99398,0.3306 2.37551,0.73468 -0.61847,0.40408 -2.15213,3.20969 -3.40814,6.23469 -1.25602,3.025 -2.87993,6.15136 -3.6087,6.94747 -1.13365,1.2384 -1.48987,0.97463 -2.46626,-1.82627 z m 22.31056,1.68177 c -2.28605,-2.28605 -1.28518,-4.72038 2.79703,-6.80297 4.10021,-2.09177 5.19486,-4.60426 2.46275,-5.65267 -0.84548,-0.32444 -2.3445,0.14067 -3.33115,1.03357 -2.04576,1.85139 -3.69037,0.99731 -2.00048,-1.03889 1.38324,-1.6667 7.05134,-1.75955 8.66888,-0.14201 0.66,0.66 1.2,3.585 1.2,6.5 0,3.45556 0.41761,5.3 1.2,5.3 0.89743,0 0.88045,0.31518 -0.0673,1.25 -1.01531,1.00143 -1.51937,0.90892 -2.5348,-0.4652 -0.71925,-0.97333 -1.66333,-1.34634 -2.18268,-0.8624 -1.73433,1.61609 -5.01209,2.08071 -6.21223,0.88057 z m 5.59703,-2.00297 c 1.59952,-1.59952 1.53284,-4.8 -0.1,-4.8 -1.85506,0 -3.7,2.09426 -3.7,4.2 0,2.05598 2.02438,2.37562 3.8,0.6 z m -94.050008,1.53772 c 1.50886,-0.60884 1.74543,-11.33772 0.25,-11.33772 -0.55,0 -1,-0.45 -1,-1 0,-0.55 1.125,-1 2.5,-1 2.37931,0 2.5,0.28 2.5,5.8 0,3.19 0.54,6.34 1.2,7 0.93334,0.93333 0.32222,1.18246 -2.75,1.12105 -2.1725,-0.0434 -3.3875,-0.30592 -2.7,-0.58333 z m 10.08882,-5.3359 c 0.22845,-4.04668 -0.0351,-6.00182 -0.80901,-6.00182 -0.63131,0 -0.86973,-0.45 -0.52981,-1 0.88453,-1.43119 4.47551,-1.23725 4.62905,0.25 0.071,0.6875 0.0254,3.44524 -0.1014,6.12832 -0.15214,3.22071 0.22875,5.1693 1.12095,5.73468 0.92532,0.58637 0.40554,0.86178 -1.6486,0.87351 l -3,0.0171 0.33882,-6.00182 z m 9.961184,4.79818 c 1.4665,-1.46649 1.55125,-5.74595 0.18497,-9.33954 -0.8667,-2.2796 -1.41469,-2.57104 -3.750004,-1.99433 -2.04573,0.50519 -2.452,0.3872 -1.61213,-0.46821 0.61757,-0.62898 2.642574,-0.99833 4.500004,-0.82076 l 3.37716,0.32284 0.30665,5.97599 c 0.16866,3.2868 0.84366,6.31741 1.5,6.73469 0.67638,0.43002 -0.30123,0.76533 -2.25665,0.77401 -2.68333,0.0119 -3.18333,-0.25136 -2.25,-1.18469 z m 59.000004,0 c 0.66,-0.66 1.2,-3.36 1.2,-6 0,-3.68076 -0.36352,-4.8 -1.55902,-4.8 -0.85746,0 -1.2809,-0.45 -0.94098,-1 0.33992,-0.55 1.49148,-1 2.55902,-1 1.68294,0 1.94098,0.72169 1.94098,5.42857 0,3.60173 0.52882,5.95739 1.57143,7 1.42857,1.42857 1.22857,1.57143 -2.2,1.57143 -2.93333,0 -3.50476,-0.26667 -2.57143,-1.2 z m 23.95,0.53772 c 0.7807,-0.31502 1.25,-2.50673 1.25,-5.83772 0,-3.35098 -0.46461,-5.50688 -1.25,-5.80024 -0.82733,-0.30903 -0.62414,-0.72462 0.60092,-1.22905 1.07863,-0.44414 2.13277,-0.30612 2.5264,0.33079 0.43622,0.70582 1.19741,0.76286 2.14907,0.16103 2.56504,-1.62212 6.82962,-1.1001 7.93843,0.97173 0.56935,1.06384 1.03518,3.95134 1.03518,6.41667 0,2.65025 0.51093,4.68857 1.25,4.98679 0.6875,0.27741 -0.1,0.54073 -1.75,0.58515 l -3,0.0808 0.33869,-5.99917 c 0.27969,-4.95425 0.0383,-6.11445 -1.38593,-6.66097 -3.34247,-1.28263 -4.95276,1.0013 -4.95276,7.02465 0,5.61295 -0.012,5.63518 -3,5.55473 -1.65,-0.0444 -2.4375,-0.30775 -1.75,-0.58516 z M 72.085422,140.76002 c -0.8155,-1.31952 0.38021,-3.19207 1.5691,-2.45729 1.21462,0.75067 1.20672,3.45729 -0.0101,3.45729 -0.51754,0 -1.2191,-0.45 -1.55902,-1 z m 77.946158,-0.0871 c -1.03052,-1.66742 1.28721,-3.57951 2.66672,-2.2 1.15392,1.15389 0.43172,3.2871 -1.11287,3.2871 -0.48508,0 -1.18431,-0.48921 -1.55385,-1.08713 z m -0.44615,-5.9129 c -1.1,-1.1 -2.01047,-2.7875 -2.02326,-3.75 -0.0128,-0.9625 -2.65635,-4.09337 -5.87457,-6.95748 -5.30903,-4.72488 -6.18227,-5.15378 -9.42245,-4.62797 -4.60977,0.74806 -8.14287,-0.17193 -10.5395,-2.74441 l -1.91513,-2.05565 -13.84744,4.24561 c -11.533114,3.53605 -14.371084,4.80084 -16.980624,7.56776 -3.317754,3.51784 -4.740774,3.90235 -8.771134,2.37001 -2.97044,-1.12936 -4.94755,-4.43951 -4.84323,-8.1087 0.0606,-2.13293 -1.08689,-3.46521 -5.9211,-6.87439 l -5.99632,-4.22872 -3.57187,1.69496 c -2.33176,1.1065 -4.923,1.51374 -7.46356,1.17298 -3.88531,-0.52113 -3.89983,-0.50992 -8.86075,6.84185 -2.73299,4.0501 -4.96907,8.47701 -4.96907,9.83756 0,2.49517 -2.29923,5.61659 -4.13717,5.61659 -0.54687,0 -1.86473,-0.46583 -2.92857,-1.03518 -3.44472,-1.84356 -1.90862,-7.93032 2.01574,-7.98734 0.8525,-0.0124 3.91896,-3.61837 6.81435,-8.01329 5.02428,-7.62639 5.19391,-8.09826 3.71991,-10.34787 -0.84944,-1.29641 -1.64339,-3.82525 -1.76434,-5.61966 -0.20962,-3.109725 -0.71175,-3.493665 -10.71992,-8.19665 -8.29871,-3.899686 -10.86403,-4.7104 -12.23643,-3.867054 -5.82696,3.580711 -12.0431601,-4.510497 -7.19214,-9.361522 3.11214,-3.112143 7.9803,-1.646376 9.86769,2.97109 0.87477,2.140111 3.23173,3.661919 11.0117,7.109863 l 9.89871,4.38693 2.67956,-2.567179 c 3.44271,-3.298326 7.46772,-4.355199 12.40148,-3.256341 3.91758,0.872532 3.9546,0.851561 11.20042,-6.345903 3.99841,-3.971731 6.9969,-7.662959 6.66331,-8.20273 -0.3336,-0.53977 -0.55245,-2.420407 -0.48633,-4.179192 0.11877,-3.159136 -0.0368,-3.268121 -12.87069,-9.01606 -9.93906,-4.451427 -13.26652,-5.542662 -14.1641,-4.645088 -1.84532,1.845319 -8.22924,1.431703 -10.11819,-0.65556 -2.19519,-2.425659 -2.1406,-8.42366 0.095,-10.43836 0.9625,-0.867393 2.97617,-1.883078 4.47483,-2.257079 2.20544,-0.550383 3.30148,-0.103358 5.75,2.345166 1.66385,1.663842 3.02517,3.849117 3.02517,4.856165 0,2.486524 25.06122,13.502348 29.88236,13.13499 3.11807,-0.237589 3.51851,-0.756979 8.144204,-10.563438 3.57873,-7.586898 4.82245,-11.377888 4.70435,-14.339353 -0.17181,-4.308412 1.13674,-5.867251 4.947663,-5.894037 2.566701,-0.01804 5.301611,2.430077 5.369141,4.806116 0.0262,0.923214 4.47598,5.164873 9.88831,9.425909 8.74954,6.888363 10.18431,7.678596 12.94061,7.127336 4.04793,-0.809586 7.49939,1.458448 8.72553,5.733743 0.80258,2.798433 2.54479,4.221397 11.76069,9.60567 12.36441,7.223747 9.67961,7.554851 22.0076,-2.714087 4.5978,-3.829863 6.60688,-6.197041 6.61618,-7.795455 0.0148,-2.536178 4.11843,-7.204545 6.33306,-7.204545 2.56152,0 6.68031,4.05237 6.68031,6.57258 0,3.596084 -3.57251,6.71716 -7.09669,6.199922 -2.42411,-0.355784 -4.24994,0.717699 -11.15102,6.556167 -4.53876,3.839887 -8.25229,7.482109 -8.25229,8.093827 0,1.810622 17.88995,26.538009 19.21482,26.558609 0.66815,0.0104 1.72582,0.97372 2.35038,2.14072 0.93343,1.74413 0.78337,2.47404 -0.84298,4.10039 -1.62635,1.62635 -2.35626,1.77641 -4.10039,0.84298 -1.167,-0.62456 -2.12183,-2.01279 -2.12183,-3.08495 0,-1.07216 -4.49036,-8.20588 -9.97857,-15.852705 l -9.97857,-13.903328 -11.55117,-6.707681 c -6.39098,-3.7112 -12.20797,-6.455644 -13.02142,-6.143491 -2.13873,0.820707 -2.19639,32.62696 -0.0591,32.62696 0.7761,0 2.62747,1.445565 4.11414,3.212365 2.35288,2.79624 2.63096,3.82085 2.14671,7.90963 -0.55001,4.64392 -0.49405,4.75615 4.92914,9.88517 4.35154,4.1155 5.96837,5.06672 7.82158,4.60159 2.87113,-0.72061 7.57732,2.67291 7.57732,5.46382 0,2.51392 -3.4553,5.92742 -6,5.92742 -1.1,0 -2.9,-0.9 -4,-2 z m -44.14979,-19.99036 12.65681,-3.99035 1.3031,-4.17526 c 1.51387,-4.85064 3.07208,-2.88336 -13.81012,-17.435656 C 89.362456,75.184344 91.046926,76.227621 87.958586,78.251181 c -1.730094,1.133598 -3.746984,1.547588 -5.865054,1.203873 -2.94687,-0.478211 -3.85925,0.111444 -10.46978,6.766388 -6.68549,6.730412 -7.14814,7.46488 -6.02458,9.564273 0.70672,1.320511 0.9869,3.99324 0.66822,6.374165 -0.54378,4.06259 -0.49389,4.13945 5.4467,8.39242 5.70096,4.08141 6.16025,4.2327 9.34896,3.07965 2.85403,-1.03203 3.74636,-0.95518 5.99166,0.51599 1.451014,0.95074 2.887164,2.37739 3.191454,3.17035 0.75952,1.97927 0.90517,1.95484 15.189474,-2.54863 z m 22.14979,-30.894625 c 0,-15.840506 -0.007,-15.889577 -2.5,-17.523053 -1.78319,-1.168388 -2.51572,-2.563311 -2.55483,-4.86501 -0.0489,-2.878075 -1.17878,-4.117509 -10.45104,-11.464348 -6.13307,-4.859517 -10.98318,-8.012162 -11.82761,-7.688126 -0.787261,0.302102 -3.714104,5.415883 -6.504094,11.363958 l -5.0727,10.814682 1.93656,3.873444 c 2.22701,4.454396 32.391584,31.296566 35.223714,31.344082 1.59445,0.02675 1.75,-1.382549 1.75,-15.855629 z"
       id="path16" />
  </g>
</svg>
